<svg width="30" height="30" viewBox="0 0 30 30" fill="none" xmlns="http://www.w3.org/2000/svg">
<path d="M15 0.5C23.0114 0.5 29.5 6.98864 29.5 15L29.4883 15.5684C29.3764 18.4061 28.4347 21.1532 26.7734 23.4668C25.0094 25.9236 22.5224 27.7669 19.6602 28.7422C19.4186 28.7856 19.3378 28.7235 19.3184 28.7061C19.2828 28.6739 19.25 28.6076 19.25 28.5195C19.25 28.2683 19.2549 27.7424 19.2598 27.0225C19.2646 26.3047 19.2695 25.3988 19.2695 24.3945C19.2695 23.3898 19.0449 22.5894 18.6973 21.9932C20.1274 21.7554 21.5845 21.2959 22.751 20.3174C24.1842 19.115 25.0995 17.2006 25.0996 14.2129C25.0996 12.5483 24.5469 11.1726 23.6279 10.0703C23.8414 9.38382 24.1271 7.89712 23.377 6.02148L23.29 5.80469L23.0693 5.73242L22.9229 6.17383C23.0647 5.74304 23.0687 5.73187 23.0684 5.73145H23.0674L23.0645 5.73047C23.0632 5.73008 23.0619 5.72991 23.0605 5.72949C23.0574 5.72852 23.0536 5.72766 23.0498 5.72656C23.0421 5.7243 23.0328 5.72141 23.0225 5.71875C23.0019 5.71344 22.9762 5.70698 22.9453 5.70117C22.8834 5.68953 22.8008 5.67916 22.6973 5.67383C22.4895 5.66317 22.1993 5.67551 21.8232 5.75391C21.1049 5.90368 20.077 6.29307 18.6992 7.20312C17.5188 6.89317 16.2769 6.7373 15.0371 6.7373C13.8007 6.735 12.5699 6.89343 11.374 7.20508C9.99593 6.30328 8.96916 5.91427 8.25293 5.76172C7.87809 5.68189 7.58945 5.66634 7.38281 5.6748C7.27975 5.67904 7.19737 5.68944 7.13574 5.7002C7.10528 5.70552 7.07991 5.71088 7.05957 5.71582C7.04933 5.71831 7.03989 5.72052 7.03223 5.72266C7.02841 5.72372 7.02466 5.72465 7.02148 5.72559C7.02004 5.72601 7.01889 5.72714 7.01758 5.72754H7.01465L7.01367 5.72852C7.01437 5.7323 7.0266 5.77216 7.16211 6.20508L7.0127 5.72852L6.78613 5.79883L6.69824 6.01953C5.94763 7.89606 6.2318 9.38418 6.44531 10.0703C5.52532 11.1763 4.97461 12.5667 4.97461 14.2129C4.97469 17.1903 5.88576 19.1038 7.31348 20.3086C8.47689 21.2903 9.93156 21.7541 11.3623 21.9932C11.1567 22.3461 10.9923 22.7707 10.8955 23.2686C10.5008 23.4186 9.95459 23.558 9.3877 23.5059C8.7692 23.4489 8.08743 23.1639 7.51758 22.3105L7.4043 22.1318L7.39844 22.1221L7.25098 21.9023C7.07526 21.6561 6.81546 21.3408 6.48047 21.0596C6.0625 20.7087 5.49165 20.3809 4.7998 20.3516L4.66113 20.3496C4.33482 20.3543 4.00524 20.3986 3.77148 20.5703C3.63456 20.6709 3.52478 20.8201 3.49121 21.0117C3.46012 21.1896 3.50488 21.3457 3.55469 21.4551C3.64945 21.6629 3.8229 21.8346 3.96484 21.9541C4.1151 22.0806 4.28612 22.1935 4.44336 22.2783V22.2793C4.53203 22.329 4.65413 22.4322 4.79883 22.5957C4.93901 22.7542 5.08074 22.9469 5.21387 23.1494C5.41619 23.4572 5.5837 23.7641 5.68359 23.9727L5.75977 24.1455C5.9369 24.637 6.31776 25.362 7.20117 25.8574C7.99632 26.3034 9.13526 26.5261 10.7705 26.3086C10.7723 26.7273 10.774 27.1231 10.7773 27.4648C10.7822 27.9647 10.7871 28.343 10.7871 28.5176C10.7871 28.6056 10.7558 28.6679 10.7217 28.6982C10.7001 28.7174 10.6146 28.7787 10.3691 28.7412C7.68068 27.8364 5.32018 26.1648 3.57715 23.9365L3.23535 23.4805C1.45566 21.0111 0.498355 18.0439 0.5 15L0.504883 14.626C0.703098 6.78766 7.1137 0.500001 15 0.5Z" stroke="#89BCD9"/>
</svg>
